<svg width="68" height="68" viewBox="0 0 68 68" fill="none" xmlns="http://www.w3.org/2000/svg">
<g clip-path="url(#clip0)">
<path d="M43.5753 31.7584C43.8617 28.7559 45.1401 25.8416 47.2948 23.7245C48.8308 22.2155 50.7143 21.1189 52.4385 19.8292C54.1457 18.5522 56.2846 16.7061 56.4609 14.4486C56.4801 14.2024 56.7844 14.1 56.9549 14.2786C57.3741 14.7179 57.9104 15.2147 58.0591 15.5902C58.4218 16.505 58.3722 17.5768 58.1032 18.5085C57.7037 19.8922 56.8754 21.1051 56.2273 22.3912C55.4114 24.0101 54.8642 25.9327 55.9422 27.6047C56.9529 29.1722 58.9648 29.6882 60.6393 28.8666C62.6211 27.8942 62.695 25.76 62.2478 23.8633C62.201 23.6648 62.4188 23.5103 62.5919 23.6184C65.6737 25.5435 67.464 29.732 67.8926 33.1684C68.3702 36.9986 67.2378 41.0038 64.8254 44.0168C64.1008 44.9219 63.1362 45.8353 61.93 45.6237C61.2189 45.499 60.4213 45.1388 59.704 44.9494C57.8615 44.4631 50.2403 42.4202 48.2586 41.9517C46.6173 41.5639 45.61 40.2592 44.8468 38.7622C43.7507 36.6124 43.3464 34.1572 43.5753 31.7584Z" fill="#EBB34C"/>
<path d="M56.7181 15.5902C57.0474 16.505 57.0023 17.5768 56.7582 18.5085C56.3957 19.8922 55.6437 21.1051 55.0552 22.3912C54.3145 24.0101 53.8178 25.9327 54.7965 27.6047C55.5526 28.8964 56.9259 29.4732 58.2362 29.1768C57.3207 28.987 56.4865 28.4484 55.9425 27.6047C54.8645 25.9327 55.4117 24.0101 56.2275 22.3912C56.8758 21.1051 57.7041 19.8922 58.1035 18.5085C58.3724 17.5769 58.4221 16.505 58.0594 15.5902C57.9105 15.2147 57.3744 14.7179 56.9552 14.2786C56.7847 14.1 56.4803 14.2024 56.4611 14.4486C56.4456 14.6469 56.4143 14.8418 56.3702 15.0337C56.5285 15.2326 56.6581 15.4234 56.7181 15.5902Z" fill="#E69824"/>
<path d="M67.8927 33.1686C67.4643 29.7321 65.6738 25.5437 62.592 23.6186C62.419 23.5105 62.2012 23.6649 62.2479 23.8635C62.345 24.2754 62.4174 24.6984 62.4512 25.1183C64.2628 27.2848 65.3382 30.4599 65.6447 33.1686C66.0782 36.9988 65.0503 41.004 62.8604 44.017C62.4366 44.6002 61.9217 45.1849 61.3166 45.4718C61.5254 45.5346 61.7313 45.589 61.9302 45.6238C63.1364 45.8353 64.101 44.922 64.8257 44.0169C67.2378 41.004 68.3703 36.9988 67.8927 33.1686Z" fill="#E69824"/>
<path d="M35.9631 31.5734C36.1836 31.2913 36.6296 31.4104 36.6916 31.763C36.7735 32.2295 36.9094 32.682 37.134 33.0908C37.5035 33.7636 38.1484 34.3034 38.8817 34.3605C39.6149 34.4176 40.3939 33.8906 40.5182 33.1236C40.6506 32.3068 40.0818 31.5768 39.6853 30.8622C38.9275 29.4959 38.7437 27.7874 39.1918 26.2759C39.589 24.936 40.5263 23.6126 41.681 22.8677C41.7645 22.8137 41.8653 22.8965 41.8322 22.9903C41.512 23.899 42.1243 25.9639 42.3325 26.5051C42.8424 27.831 43.9068 28.8794 45.0669 29.6593C46.5354 30.6465 48.2039 31.3037 49.6852 32.2719C51.4723 33.4399 52.9751 35.0779 53.8419 37.0291C54.4428 38.3812 54.7269 39.8835 54.6222 41.3617C54.5408 42.5117 54.5709 43.1495 53.4908 43.2809C51.9591 43.4673 50.284 43.2779 48.7419 43.2764C45.9469 43.2738 43.1519 43.2711 40.3568 43.2685C39.0284 43.7818 37.4782 43.4152 36.3544 42.5068C35.2305 41.5983 34.5099 40.2077 34.1841 38.7511C33.621 36.2342 34.4047 33.5672 35.9631 31.5734Z" fill="#F7E365"/>
<path d="M66.8134 44.1714C66.4793 43.418 65.7953 42.8828 64.9835 42.7396L27.0665 36.0538C26.7302 35.9948 26.3862 36.1064 26.1492 36.3526C25.9121 36.5987 25.8132 36.9466 25.8853 37.2806L27.63 45.3749C28.0224 47.1949 29.4606 48.5798 31.2941 48.903L58.7326 53.7413C59.0006 53.7885 59.2682 53.8115 59.5333 53.8115C61.0817 53.8115 62.5361 53.0246 63.3824 51.6791L66.6464 46.4889C67.0852 45.7911 67.1476 44.9249 66.8134 44.1714Z" fill="#607882"/>
<path d="M66.8134 44.1715C66.4793 43.4181 65.7953 42.8828 64.9835 42.7397L60.7957 42.0012C61.3327 42.2537 61.7688 42.6916 62.0156 43.2482C62.3534 44.0097 62.2902 44.8855 61.8468 45.5909L58.5472 50.8378C57.6916 52.198 56.2214 52.9936 54.6562 52.9936C54.5936 52.9936 54.5309 52.992 54.4681 52.9895L58.7327 53.7414C59.0007 53.7887 59.2684 53.8117 59.5334 53.8117C61.0818 53.8117 62.5362 53.0248 63.3825 51.6793L66.6465 46.4891C67.0852 45.7912 67.1476 44.925 66.8134 44.1715Z" fill="#495959"/>
<path d="M28.1451 43.9249C27.6721 43.9249 27.2466 43.5959 27.143 43.1147L25.4619 35.3174C25.2482 34.3273 24.4655 33.5737 23.468 33.3979L17.9459 32.4242C17.3877 32.3258 17.015 31.7936 17.1134 31.2354C17.2118 30.6772 17.7448 30.3046 18.3022 30.403L23.8243 31.3766C25.6473 31.6982 27.0774 33.075 27.468 34.8845L29.1493 42.6822C29.2687 43.2362 28.9163 43.7821 28.3624 43.9015C28.2895 43.9174 28.2167 43.9249 28.1451 43.9249Z" fill="#607882"/>
<path d="M18.3014 30.4044L17.8917 32.728C17.7756 33.3861 17.1481 33.8256 16.49 33.7095L9.25585 32.4339C8.40054 32.2831 7.52119 32.3455 6.69576 32.6154C5.89304 32.8778 5.03799 32.9384 4.20619 32.7917L2.48308 32.4879C0.849083 32.1997 -0.241971 30.6415 0.0460993 29.0075C0.33417 27.3735 1.89246 26.2825 3.52645 26.5705L17.3198 29.0027C17.978 29.1187 18.4174 29.7462 18.3014 30.4044Z" fill="#DF646E"/>
</g>
<defs>
<clipPath id="clip0">
<rect width="68" height="68" fill="white"/>
</clipPath>
</defs>
</svg>
