<svg width="24" height="24" viewBox="0 0 24 24" fill="none" xmlns="http://www.w3.org/2000/svg">
<path d="M23.5 11.75C23.5 5.30645 18.1935 0 11.75 0C5.25907 0 0 5.30645 0 11.75C0 18.2409 5.25907 23.5 11.75 23.5C18.1935 23.5 23.5 18.2409 23.5 11.75ZM10.376 18.004C10.0917 18.2883 9.57056 18.2883 9.28629 18.004L4.35887 13.0766C4.0746 12.7923 4.0746 12.2712 4.35887 11.9869L5.44859 10.9446C5.73286 10.6129 6.20665 10.6129 6.49093 10.9446L9.85484 14.2611L16.9617 7.15423C17.246 6.82258 17.7198 6.82258 18.004 7.15423L19.0938 8.19657C19.378 8.48085 19.378 9.00202 19.0938 9.28629L10.376 18.004Z" fill="#35AA4E"/>
</svg>
